<svg width="34" height="30" viewBox="0 0 34 30" fill="none" xmlns="http://www.w3.org/2000/svg">
<path d="M29.2772 2.50049H26.4431V0H24.5543V2.50049H9.44398V0H7.55518V2.50049H4.72283C2.11881 2.50049 0 4.36994 0 6.66749V25.833C0 28.1306 2.11881 30 4.72283 30H29.2772C31.8812 30 34 28.1306 34 25.833V10.833V9.1665V6.66601C33.9983 4.36846 31.8795 2.50049 29.2772 2.50049ZM32.1095 25.8315C32.1095 27.2092 30.8386 28.3305 29.2772 28.3305H4.72283C3.15975 28.3305 1.8888 27.2092 1.8888 25.8315V10.833H32.1095V25.8315ZM32.1095 9.1665H1.8888V6.66601C1.8888 5.28689 3.15975 4.16551 4.72283 4.16551H7.55686V5.83202H9.44398V4.167H24.5543V5.8335H26.4431V4.167H29.2772C30.8386 4.167 32.1095 5.28689 32.1095 6.66601V9.1665Z" fill="#170710"/>
</svg>
