<svg width="24" height="18" viewBox="0 0 24 18" fill="none" xmlns="http://www.w3.org/2000/svg">
<path d="M21.8123 0.355469H1.89672C0.848535 0.355469 0 1.204 0 2.25219C0 3.30038 0.848535 4.14892 1.89672 4.14892H21.8373C22.8855 4.14892 23.734 3.30038 23.734 2.25219C23.734 1.204 22.8605 0.355469 21.8123 0.355469Z" fill="#170710"/>
<path d="M18.7925 7.26855H4.9165C3.86831 7.26855 3.01978 8.11709 3.01978 9.16528C3.01978 10.2135 3.86831 11.062 4.9165 11.062H18.8175C19.8657 11.062 20.7142 10.2135 20.7142 9.16528C20.7142 8.11709 19.8407 7.26855 18.7925 7.26855Z" fill="#170710"/>
<path d="M15.7728 14.2067H7.93631C6.88812 14.2067 6.03958 15.0552 6.03958 16.1034C6.03958 17.1516 6.88812 18.0001 7.93631 18.0001H15.7977C16.8459 18.0001 17.6945 17.1516 17.6945 16.1034C17.6945 15.0552 16.821 14.2067 15.7728 14.2067Z" fill="#170710"/>
</svg>
