<svg width="53" height="38" viewBox="0 0 53 38" fill="none" xmlns="http://www.w3.org/2000/svg">
<path d="M44.5026 0.576173C43.7344 -0.192058 42.5271 -0.192058 41.8138 0.576173C41.0456 1.3444 41.0456 2.55162 41.8138 3.26498C45.9842 7.49025 48.2889 13.0325 48.2889 19.0137C48.2889 24.9401 45.9842 30.5372 41.7589 34.7076C40.9907 35.4758 40.9907 36.683 41.7589 37.3964C42.143 37.7805 42.6369 37.9451 43.1308 37.9451C43.6246 37.9451 44.1185 37.7805 44.5026 37.3964C49.4412 32.4578 52.13 25.9278 52.13 18.9588C52.13 12.0448 49.4412 5.45993 44.5026 0.576173Z" fill="#170710"/>
<path d="M3.84116 19.0137C3.84116 13.0324 6.14585 7.49019 10.3711 3.31979C11.1393 2.55156 11.1393 1.34434 10.3711 0.630983C9.60289 -0.137248 8.39567 -0.137248 7.68231 0.630983C2.68881 5.45986 0 12.0447 0 19.0137C0 25.9826 2.68881 32.5126 7.62744 37.4512C8.01155 37.8353 8.50541 37.9999 8.99928 37.9999C9.49314 37.9999 9.987 37.8353 10.3711 37.4512C11.1393 36.683 11.1393 35.4757 10.3711 34.7624C6.14585 30.5371 3.84116 24.94 3.84116 19.0137Z" fill="#170710"/>
<path d="M38.0274 7.05127C37.2592 6.28304 36.052 6.28304 35.3386 7.05127C34.5704 7.8195 34.5704 9.02672 35.3386 9.74008C37.8079 12.2094 39.1798 15.5018 39.1798 18.9589C39.1798 22.4159 37.8079 25.7083 35.3386 28.1776C34.5704 28.9459 34.5704 30.1531 35.3386 30.8664C35.7227 31.2505 36.2166 31.4152 36.7105 31.4152C37.2043 31.4152 37.6982 31.2505 38.0823 30.8664C41.265 27.6838 43.0209 23.4585 43.0209 18.9589C42.9661 14.5141 41.2101 10.2339 38.0274 7.05127Z" fill="#170710"/>
<path d="M13.005 19.0138C13.005 15.5019 14.3769 12.2643 16.8462 9.79501C17.6144 9.02678 17.6144 7.81956 16.8462 7.1062C16.078 6.33797 14.8707 6.33797 14.1574 7.1062C10.9747 10.2889 9.21875 14.5141 9.21875 19.0687C9.21875 23.5683 11.0296 27.9033 14.2123 31.0311C14.5964 31.4152 15.0902 31.5798 15.5841 31.5798C16.078 31.5798 16.5718 31.4152 16.9559 31.0311C17.7242 30.2629 17.6693 29.0557 16.9559 28.3423C14.3769 25.8181 13.005 22.4708 13.005 19.0138Z" fill="#170710"/>
<path d="M23.87 11.8253C22.7176 11.0571 21.1812 11.8802 21.1812 13.252V24.7206C21.1812 26.0924 22.7176 26.9155 23.87 26.1473L32.4851 20.3856C33.5277 19.6722 33.5277 18.1906 32.4851 17.4773L23.87 11.8253Z" fill="#170710"/>
</svg>
